<?xml version="1.0" encoding="UTF-8" standalone="no"?>
<svg width="128px" height="128px" viewBox="0 0 128 128" version="1.1" xmlns="http://www.w3.org/2000/svg" xmlns:xlink="http://www.w3.org/1999/xlink" style="background: #FFFFFF;">
    <!-- Generator: Sketch 42 (36781) - http://www.bohemiancoding.com/sketch -->
    <title>project_avatar_mobile</title>
    <desc>Created with Sketch.</desc>
    <defs>
        <rect id="path-1" x="0" y="0" width="128" height="128"></rect>
    </defs>
    <g id="Page-1" stroke="none" stroke-width="1" fill="none" fill-rule="evenodd">
        <g id="project_avatar_mobile">
            <g id="mobile">
                <g>
                    <mask id="mask-2" fill="white">
                        <use xlink:href="#path-1"></use>
                    </mask>
                    <use id="Rectangle" fill="#2684FF" xlink:href="#path-1"></use>
                    <path d="M90.421,17.732 L37.816,17.732 C31.961,17.732 27.17,22.523 27.17,28.378 L27.17,128.979 L101.067,129.234 L101.067,28.378 C101.067,22.523 96.277,17.732 90.421,17.732 Z" id="Shape" fill="#253858" fill-rule="nonzero" ></path>
                    <polygon id="Shape" fill="#FFFFFF" fill-rule="nonzero"  points="32.99 39.456 32.99 128.793 95.248 128.792 95.248 39.456"></polygon>
                    <circle id="Oval" fill="#FFBDAE" fill-rule="nonzero"  cx="64.119" cy="71.356" r="23.112"></circle>
                    <path d="M111.397,50.439 C118.67,59.605 118.67,72.649 111.397,81.815 C110.392,83.084 108.757,83.346 107.957,82.509 L107.957,82.509 C107.153,81.67 107.284,80.22 108.089,79.197 C114.148,71.561 114.148,60.693 108.089,53.057 C107.284,52.034 107.153,50.584 107.957,49.745 L107.957,49.745 C108.756,48.908 110.392,49.17 111.397,50.439 Z" id="Shape" fill="#FFFFFF" fill-rule="nonzero" ></path>
                    <path d="M17.015,50.439 C9.742,59.605 9.742,72.649 17.015,81.815 C18.02,83.084 19.655,83.346 20.455,82.509 L20.455,82.509 C21.259,81.67 21.128,80.22 20.323,79.197 C14.264,71.561 14.264,60.693 20.323,53.057 C21.128,52.034 21.259,50.584 20.455,49.745 L20.455,49.745 C19.655,48.908 18.019,49.17 17.015,50.439 Z" id="Shape" fill="#FFFFFF" fill-rule="nonzero" ></path>
                    <path d="M79.224,33.402 L49.051,33.402 C48.02,33.402 47.176,32.558 47.176,31.527 L47.176,30.287 C47.176,29.256 48.02,28.412 49.051,28.412 L79.224,28.412 C80.255,28.412 81.099,29.256 81.099,30.287 L81.099,31.527 C81.099,32.558 80.256,33.402 79.224,33.402 Z" id="Shape" fill="#1B4068" fill-rule="nonzero" ></path>
                    <path d="M70.611,71.832 L57.664,71.832 C57.388,71.832 57.164,72.056 57.164,72.332 C57.164,74.792 58.438,76.954 60.362,78.196 C60.381,78.208 60.4,78.22 60.419,78.232 L60.433,78.232 C61.507,78.908 62.775,79.305 64.138,79.305 C65.505,79.305 66.777,78.906 67.853,78.226 L67.857,78.232 C69.813,76.997 71.112,74.816 71.112,72.332 C71.111,72.056 70.887,71.832 70.611,71.832 Z" id="Shape" fill="#FF4E4A" fill-rule="nonzero" ></path>
                    <circle id="Oval" fill="#333333" fill-rule="nonzero"  cx="54.089" cy="65.934" r="2.528"></circle>
                    <circle id="Oval" fill="#333333" fill-rule="nonzero"  cx="74.185" cy="65.934" r="2.528"></circle>
                    <path d="M68.852,115.832 L80.716,115.832 C81.816,115.832 82.716,114.932 82.716,113.832 L82.716,102.879 C82.716,101.779 81.816,100.879 80.716,100.879 L68.852,100.879 C67.752,100.879 66.852,101.779 66.852,102.879 L66.852,113.832 C66.852,114.932 67.752,115.832 68.852,115.832 Z" id="Shape" fill="#B3D4FF" fill-rule="nonzero" ></path>
                    <path d="M47.56,115.832 L59.424,115.832 C60.524,115.832 61.424,114.932 61.424,113.832 L61.424,102.879 C61.424,101.779 60.524,100.879 59.424,100.879 L47.56,100.879 C46.46,100.879 45.56,101.779 45.56,102.879 L45.56,113.832 C45.56,114.932 46.46,115.832 47.56,115.832 Z" id="Shape" fill="#FF4E4A" fill-rule="nonzero" ></path>
                </g>
            </g>
        </g>
    </g>
</svg>