<?xml version="1.0" encoding="UTF-8" standalone="no"?>
<svg width="128px" height="128px" viewBox="0 0 128 128" version="1.1" xmlns="http://www.w3.org/2000/svg" xmlns:xlink="http://www.w3.org/1999/xlink" style="background: #FFFFFF;">
    <!-- Generator: Sketch 42 (36781) - http://www.bohemiancoding.com/sketch -->
    <title>project_avatar_money</title>
    <desc>Created with Sketch.</desc>
    <defs>
        <rect id="path-1" x="0" y="0" width="128" height="128"></rect>
    </defs>
    <g id="Page-1" stroke="none" stroke-width="1" fill="none" fill-rule="evenodd">
        <g id="project_avatar_money">
            <g id="money">
                <g>
                    <mask id="mask-2" fill="white">
                        <use xlink:href="#path-1"></use>
                    </mask>
                    <use id="Rectangle" fill="#FFC400" xlink:href="#path-1"></use>
                    <path d="M100.555,35.125 C100.555,31.462 97.558,28.465 93.895,28.465 L30.402,28.465 C25.757,28.465 21.957,32.265 21.957,36.91 L21.957,76.657 L100.555,76.657 L100.555,45.316 L100.555,35.125 Z" id="Shape" fill="#2A5083" fill-rule="nonzero" ></path>
                    <path d="M89.189,28.465 L82.232,28.465 L80.756,30.063 L79.186,28.465 L30.402,28.465 C25.757,28.465 21.957,32.265 21.957,36.91 C21.957,41.555 25.757,45.355 30.402,45.355 L89.19,45.355 C93.835,45.355 97.635,41.555 97.635,36.91 C97.635,32.265 93.834,28.465 89.189,28.465 Z" id="Shape" fill="#153A56" fill-rule="nonzero" ></path>
                    <path d="M96.013,28.465 L77.964,28.465 L73.68,76.657 L102.674,76.657 L102.674,45.316 L102.674,35.125 C102.674,31.462 99.676,28.465 96.013,28.465 Z" id="Shape" fill="#153A56" fill-rule="nonzero" ></path>
                    <path d="M80.756,30.063 L79.804,28.465 L75.633,21.464 C74.443,19.467 71.871,18.797 69.858,19.958 L55.113,28.465 L27.053,44.654 C28.082,45.102 29.213,45.354 30.402,45.354 L31.714,45.354 L89.19,45.354 L89.868,45.354 L80.756,30.063 Z" id="Shape" fill="#00B8D9" fill-rule="nonzero" ></path>
                    <path d="M26.957,102.057 L101.148,102.057 C103.898,102.057 106.148,99.807 106.148,97.057 L106.148,50.354 C106.148,47.604 103.898,45.354 101.148,45.354 L26.957,45.354 C24.207,45.354 21.957,47.604 21.957,50.354 L21.957,97.056 C21.957,99.807 24.207,102.057 26.957,102.057 Z" id="Shape" fill="#253858" fill-rule="nonzero" ></path>
                    <path d="M89.033,83.983 L107.732,83.983 C109.382,83.983 110.732,82.633 110.732,80.983 L110.732,64.356 C110.732,62.706 109.382,61.356 107.732,61.356 L89.033,61.356 C84.362,61.356 80.54,65.178 80.54,69.849 L80.54,75.489 C80.54,80.161 84.362,83.983 89.033,83.983 Z" id="Shape" fill="#153A56" fill-rule="nonzero" ></path>
                    <circle id="Oval" fill="#FFB115" fill-rule="nonzero"  cx="92.472" cy="72.669" r="5.162"></circle>
                    <circle id="Oval" fill="#345E8C" fill-rule="nonzero"  cx="60.175" cy="72.669" r="12.71"></circle>
                    <path d="M82.366,44.921 L72.013,27.569 C71.568,26.823 70.593,26.576 69.846,27.022 L60.944,32.333 C60.198,32.778 59.951,33.753 60.397,34.5 C60.842,35.246 61.817,35.493 62.564,35.047 L70.109,30.545 L78.945,45.354 L82.537,45.354 C82.499,45.206 82.448,45.059 82.366,44.921 Z" id="Shape" fill="#FFFFFF" fill-rule="nonzero" opacity="0.5" ></path>
                    <path d="M62.323,45.354 C60.596,41.379 56.638,38.596 52.027,38.596 C47.416,38.596 43.459,41.378 41.731,45.354 L62.323,45.354 Z" id="Shape" fill="#FFFFFF" fill-rule="nonzero" opacity="0.5" ></path>
                    <path d="M79.822,28.496 L90.107,25.811 C92.378,25.218 94.7,26.578 95.293,28.85 L99.603,45.355 L89.18,45.355 L79.822,28.496 Z" id="Shape" fill="#00A3BF" fill-rule="nonzero" ></path>
                    <path d="M93.818,45.354 L90.328,32.767 C90.096,31.929 89.22,31.434 88.383,31.666 L82.536,33.287 L84.114,36.129 L87.705,35.133 L90.539,45.353 L93.818,45.353 L93.818,45.354 Z" id="Shape" fill="#FFFFFF" fill-rule="nonzero" opacity="0.5" ></path>
                    <polygon id="Shape" fill="#153A56" fill-rule="nonzero" opacity="0.1"  points="85.941 26.898 91.651 45.354 89.18 45.354 79.822 28.496"></polygon>
                    <rect id="Rectangle-path" fill="#153A56" fill-rule="nonzero" opacity="0.1"  x="27.052" y="41.975" width="73.503" height="4.479"></rect>
                </g>
            </g>
        </g>
    </g>
</svg>