<?xml version="1.0" encoding="UTF-8" standalone="no"?>
<svg width="128px" height="128px" viewBox="0 0 128 128" version="1.1" xmlns="http://www.w3.org/2000/svg" xmlns:xlink="http://www.w3.org/1999/xlink" style="background: #FFFFFF;">
    <!-- Generator: Sketch 42 (36781) - http://www.bohemiancoding.com/sketch -->
    <title>project_avatar_website</title>
    <desc>Created with Sketch.</desc>
    <defs>
        <rect id="path-1" x="0" y="0" width="128" height="128"></rect>
    </defs>
    <g id="Page-1" stroke="none" stroke-width="1" fill="none" fill-rule="evenodd">
        <g id="project_avatar_website">
            <g id="website">
                <g>
                    <mask id="mask-2" fill="white">
                        <use xlink:href="#path-1"></use>
                    </mask>
                    <use id="Rectangle" fill="#FF5630" xlink:href="#path-1"></use>
                    <path d="M96.814,25.996 L31.104,25.996 C24.242,25.996 18.627,31.61 18.627,38.473 L18.627,50.502 L109.291,50.502 L109.291,38.472 C109.29,31.61 103.676,25.996 96.814,25.996 Z" id="Shape" fill="#FFFFFF" fill-rule="nonzero" ></path>
                    <path d="M18.627,50.224 L18.627,87.681 L18.627,88.496 C18.627,95.358 24.241,100.973 31.104,100.973 L96.814,100.973 C103.676,100.973 109.291,95.359 109.291,88.496 L109.291,87.681 L109.291,50.224 L18.627,50.224 Z" id="Shape" fill="#253858" fill-rule="nonzero" ></path>
                    <circle id="Oval" fill="#FF4E4A" fill-rule="nonzero"  cx="33.598" cy="38.67" r="4.575"></circle>
                    <circle id="Oval" fill="#FFB115" fill-rule="nonzero"  cx="48.01" cy="38.67" r="4.575"></circle>
                    <circle id="Oval" fill="#00C7E6" fill-rule="nonzero"  cx="62.421" cy="38.67" r="4.575"></circle>
                    <path d="M56.339,76.324 L60.503,76.55 L57.316,82.928 C56.799,83.962 57.196,85.219 58.213,85.769 L58.213,85.769 C59.278,86.345 60.608,85.926 61.149,84.843 L64.374,78.388 L66.856,81.278 C67.777,82.351 69.537,81.724 69.572,80.31 L69.94,65.517 C69.975,64.122 68.366,63.321 67.274,64.189 L55.462,73.572 C54.349,74.456 54.92,76.247 56.339,76.324 Z" id="Shape" fill="#FFFFFF" fill-rule="nonzero" ></path>
                </g>
            </g>
        </g>
    </g>
</svg>