<?xml version="1.0" encoding="UTF-8" standalone="no"?>
<svg width="128px" height="128px" viewBox="0 0 128 128" version="1.1" xmlns="http://www.w3.org/2000/svg" xmlns:xlink="http://www.w3.org/1999/xlink" style="background: #FFFFFF;">
    <!-- Generator: Sketch 42 (36781) - http://www.bohemiancoding.com/sketch -->
    <title>project_avatar_nature</title>
    <desc>Created with Sketch.</desc>
    <defs>
        <rect id="path-1" x="0" y="0" width="128" height="128"></rect>
    </defs>
    <g id="Page-1" stroke="none" stroke-width="1" fill="none" fill-rule="evenodd">
        <g id="project_avatar_nature">
            <g id="Nature">
                <g>
                    <mask id="mask-2" fill="white">
                        <use xlink:href="#path-1"></use>
                    </mask>
                    <use id="Rectangle" fill="#2684FF" xlink:href="#path-1"></use>
                    <path d="M59.3,53 C63.7,51.2 66.8,47 66.8,42 C66.8,35.4 61.5,30.1 54.9,30.1 C52,30.1 49.4,31.1 47.4,32.8 L59.3,53 Z" id="Shape" fill="#FFC400" fill-rule="nonzero" ></path>
                    <path d="M64.1,60.7 L61,63.8 C60.2,64.6 58.9,64.6 58.1,63.8 L54.8,60.5 C54,59.7 52.7,59.7 51.9,60.5 L48.2,64.2 C47.4,65 46.1,65 45.3,64.2 L42,60.9 C41.2,60.1 39.9,60.1 39.1,60.9 L36.1,63.9 C35.3,64.7 34,64.7 33.2,63.9 L30.2,61 C29.4,60.2 28.1,60.2 27.3,61 L24.5,63.8 C23.7,64.6 22.4,64.6 21.6,63.8 L18.4,60.6 C18.2,60.4 18,60.3 17.8,60.2 L-12.6,108.4 C-4.4,132.9 2.3,134.8 29.3,135.9 L63.8,127.9 L66.6,127.9 C78.1,127.4 88.8,123.9 98,118.1 L64.1,60.7 Z" id="Shape" fill="#DEEBFF" fill-rule="nonzero" ></path>
                    <path d="M78.2,67.1 L51.1,112.8 L51.1,126.7 C55.2,127.5 59.5,128 63.9,128 C79.7,128 94.1,122.3 105.2,112.8 L78.2,67.1 Z" id="Shape" fill="#39A9E2" fill-rule="nonzero" opacity="0.2" ></path>
                    <path d="M122.3,86.1 L111.9,68.5 C111.4,68.6 111,68.7 110.7,69.1 L107,72.8 C106.2,73.6 104.9,73.6 104.1,72.8 L100.8,69.5 C100,68.7 98.7,68.7 97.9,69.5 L94.9,72.5 C94.1,73.3 92.8,73.3 92,72.5 L89,69.5 C88.2,68.7 86.9,68.7 86.1,69.5 L83.3,72.3 C82.5,73.1 81.2,73.1 80.4,72.3 L77.2,69.1 L46.6,120.3 C45.2,122.6 44,130.9 46.6,131.5 C50.5,132.4 57.3,131.3 61.5,131.5 L64,130.5 L66.5,130.5 C91.5,129.5 135.5,143 139,115 C139.143123,113.855013 122.9,87.1 122.3,86.1 Z" id="Shape" fill="#B3D4FF" fill-rule="nonzero" ></path>
                    <path d="M72.3,22.2 L29.2,22.2 C24.9,22.2 21.4,25.7 21.4,30 C21.4,34.3 24.9,37.8 29.2,37.8 L72.3,37.8 C76.6,37.8 80.1,34.3 80.1,30 C80.1,25.7 76.6,22.2 72.3,22.2 Z" id="Shape" fill="#FFFFFF" fill-rule="nonzero" opacity="0.4" ></path>
                    <path d="M64.2,60.8 L61.1,63.9 C60.3,64.7 59,64.7 58.2,63.9 L54.9,60.6 C54.1,59.8 52.8,59.8 52,60.6 L48.3,64.3 C47.5,65.1 46.2,65.1 45.4,64.3 L42,60.9 C41.7,60.6 41.2,60.4 40.8,60.3 L40.8,131.5 C47.2,134 89.1,123.9 98.2,118.1 L64.2,60.8 Z" id="Shape" fill="#B3D4FF" fill-rule="nonzero" ></path>
                    <path d="M98.1,45.1 C96.6,42.5 92.8,42.5 91.2,45.1 L76.6,69.7 C76.8,69.8 77,69.9 77.2,70.1 L80.4,73.3 C81.2,74.1 82.5,74.1 83.3,73.3 L86.1,70.5 C86.9,69.7 88.2,69.7 89,70.5 L91.9,73.4 C92.7,74.2 94,74.2 94.8,73.4 L97.8,70.4 C98.6,69.6 99.9,69.6 100.7,70.4 L104,73.7 C104.8,74.5 106.1,74.5 106.9,73.7 L110.6,70 C111.1,69.5 111.8,69.3 112.5,69.4 L98.1,45.1 Z" id="Shape" fill="#FFFFFF" fill-rule="nonzero" ></path>
                    <path d="M36.2,29.1 L17.3,61.1 C17.7,61.2 18.1,61.3 18.4,61.6 L21.6,64.8 C22.4,65.6 23.7,65.6 24.5,64.8 L27.3,62 C28.1,61.2 29.4,61.2 30.2,62 L33.1,64.9 C33.9,65.7 35.2,65.7 36,64.9 L39,61.9 C39.8,61.1 41.1,61.1 41.9,61.9 L45.2,65.2 C46,66 47.3,66 48.1,65.2 L51.8,61.5 C52.6,60.7 53.9,60.7 54.7,61.5 L58,64.8 C58.8,65.6 60.1,65.6 60.9,64.8 L64.1,61.6 L64.2,61.5 L44.6,28.1 C42.3,25.6 38.1,26 36.2,29.1 Z" id="Shape" fill="#FFFFFF" fill-rule="nonzero" ></path>
                </g>
            </g>
        </g>
    </g>
</svg>