<?xml version="1.0" encoding="UTF-8" standalone="no"?>
<svg width="128px" height="128px" viewBox="0 0 128 128" version="1.1" xmlns="http://www.w3.org/2000/svg" xmlns:xlink="http://www.w3.org/1999/xlink" style="background: #FFFFFF;">
    <!-- Generator: Sketch 42 (36781) - http://www.bohemiancoding.com/sketch -->
    <title>project_avatar_notes</title>
    <desc>Created with Sketch.</desc>
    <defs>
        <rect id="path-1" x="0" y="0" width="128" height="128"></rect>
    </defs>
    <g id="Page-1" stroke="none" stroke-width="1" fill="none" fill-rule="evenodd">
        <g id="project_avatar_notes">
            <g id="notes">
                <g>
                    <mask id="mask-2" fill="white">
                        <use xlink:href="#path-1"></use>
                    </mask>
                    <use id="Rectangle" fill="#00C7E6" xlink:href="#path-1"></use>
                    <path d="M91.1,18 L36.6,18 C31.7,18 27.8,22 27.8,26.8 L27.8,99.5 C27.8,104.4 31.8,108.3 36.6,108.3 L91,108.3 C95.9,108.3 99.8,104.3 99.8,99.5 L99.8,26.9 C99.9,22 95.9,18 91.1,18 Z" id="Shape" fill="#FFFFFF" fill-rule="nonzero" ></path>
                    <path d="M89.1,40.6 L43.6,40.6 C42,40.6 40.7,39.3 40.7,37.7 L40.7,37.7 C40.7,36.1 42,34.8 43.6,34.8 L89.1,34.8 C90.7,34.8 92,36.1 92,37.7 L92,37.7 C92,39.3 90.7,40.6 89.1,40.6 Z" id="Shape" fill="#D3E0EA" fill-rule="nonzero" ></path>
                    <path d="M89.1,53.5 L43.6,53.5 C42,53.5 40.7,52.2 40.7,50.6 L40.7,50.6 C40.7,49 42,47.7 43.6,47.7 L89.1,47.7 C90.7,47.7 92,49 92,50.6 L92,50.6 C92,52.2 90.7,53.5 89.1,53.5 Z" id="Shape" fill="#D3E0EA" fill-rule="nonzero" ></path>
                    <path d="M61.1,66.4 L43.6,66.4 C42,66.4 40.7,65.1 40.7,63.5 L40.7,63.5 C40.7,61.9 42,60.6 43.6,60.6 L61.1,60.6 C62.7,60.6 64,61.9 64,63.5 L64,63.5 C64,65.1 62.7,66.4 61.1,66.4 Z" id="Shape" fill="#D3E0EA" fill-rule="nonzero" ></path>
                    <path d="M32.6,92.4 L23.7,92.4 C22.1,92.4 20.8,91.1 20.8,89.5 L20.8,89.5 C20.8,87.9 22.1,86.6 23.7,86.6 L32.6,86.6 C34.2,86.6 35.5,87.9 35.5,89.5 L35.5,89.5 C35.5,91.1 34.2,92.4 32.6,92.4 Z" id="Shape" fill="#2A5083" fill-rule="nonzero" ></path>
                    <path d="M32.6,75.2 L23.7,75.2 C22.1,75.2 20.8,73.9 20.8,72.3 L20.8,72.3 C20.8,70.7 22.1,69.4 23.7,69.4 L32.6,69.4 C34.2,69.4 35.5,70.7 35.5,72.3 L35.5,72.3 C35.5,73.9 34.2,75.2 32.6,75.2 Z" id="Shape" fill="#2A5083" fill-rule="nonzero" ></path>
                    <path d="M32.6,57.9 L23.7,57.9 C22.1,57.9 20.8,56.6 20.8,55 L20.8,55 C20.8,53.4 22.1,52.1 23.7,52.1 L32.6,52.1 C34.2,52.1 35.5,53.4 35.5,55 L35.5,55 C35.5,56.6 34.2,57.9 32.6,57.9 Z" id="Shape" fill="#2A5083" fill-rule="nonzero" ></path>
                    <path d="M32.6,40.6 L23.7,40.6 C22.1,40.6 20.8,39.3 20.8,37.7 L20.8,37.7 C20.8,36.1 22.1,34.8 23.7,34.8 L32.6,34.8 C34.2,34.8 35.5,36.1 35.5,37.7 L35.5,37.7 C35.5,39.3 34.2,40.6 32.6,40.6 Z" id="Shape" fill="#2A5083" fill-rule="nonzero" ></path>
                    <path d="M98,33.6 C92.8,30.9 87.5,30.7 86.2,33.2 L81.9,41.4 L100.7,51.3 L105,43 C106.3,40.6 103.2,36.3 98,33.6 Z" id="Shape" fill="#FF4E4A" fill-rule="nonzero" ></path>
                    <path d="M105.3,42 C105.5,39.5 102.5,36 98,33.6 L98,33.6 L91.3,46.3 L100.7,51.2 L100.7,51.2 L101.3,50.1 L105,43 C105.2,42.7 105.3,42.4 105.3,42 Z" id="Shape" fill="#D63E3E" fill-rule="nonzero" ></path>
                    <rect id="Rectangle-path" fill="#EBF2F9" fill-rule="nonzero"  transform="translate(90.390020, 48.036450) rotate(-152.335657) translate(-90.390020, -48.036450) " x="79.7398124" y="44.8863886" width="21.3004151" height="6.30012279"></rect>
                    <polygon id="Shape" fill="#FFC400" fill-rule="nonzero"  points="92.1 52.5 85.8 49.2 79.5 45.9 60.6 82 66.9 85.3 73.2 88.6 79.4 91.9 98.4 55.7"></polygon>
                    <path d="M71.9,84.5 L71.7,83.8 L66.9,85.3 L65.4,80.5 L60.6,82 L60.5,82.2 C60.3,82.5 60.2,82.9 60.3,83.3 L61,93.3 L66,95.9 L71.9,84.5 Z" id="Shape" fill="#FFD49B" fill-rule="nonzero" ></path>
                    <polygon id="Shape" fill="#FF991F" fill-rule="nonzero"  points="92.1 52.4 88.9 50.8 70 86.9 73.2 88.6 79.4 91.8 81.8 87.2 98.3 55.7"></polygon>
                    <path d="M69.9,98 L78.6,92.9 C78.9,92.7 79.2,92.4 79.3,92.1 L79.4,91.9 L77.9,87.1 L73.2,88.6 L71.7,83.8 L65.3,95.6 C65.9,96 69.2,98.4 69.9,98 Z" id="Shape" fill="#E2AD79" fill-rule="nonzero" ></path>
                    <path d="M65.3,95.6 L62.3,101.1 L62.3,101.1 C62.4,101.2 62.6,101.3 62.7,101.3 L62.8,101.3 C63,101.4 63.1,101.4 63.3,101.4 L63.4,101.4 L63.9,101.4 L64,101.4 C64.2,101.4 64.4,101.3 64.6,101.2 L70,98 L65.3,95.6 Z" id="Shape" fill="#173E68" fill-rule="nonzero" ></path>
                    <path d="M61,93.3 L61.4,99.5 C61.4,100.2 61.8,100.7 62.3,101 L65.3,95.5 L61,93.3 Z" id="Shape" fill="#2A5083" fill-rule="nonzero" ></path>
                </g>
            </g>
        </g>
    </g>
</svg>