<?xml version="1.0" encoding="UTF-8" standalone="no"?>
<svg width="128px" height="128px" viewBox="0 0 128 128" version="1.1" xmlns="http://www.w3.org/2000/svg" xmlns:xlink="http://www.w3.org/1999/xlink" style="background: #FFFFFF;">
    <!-- Generator: Sketch 42 (36781) - http://www.bohemiancoding.com/sketch -->
    <title>project_avatar_plane</title>
    <desc>Created with Sketch.</desc>
    <defs>
        <rect id="path-1" x="0" y="0" width="128" height="128"></rect>
    </defs>
    <g id="Page-1" stroke="none" stroke-width="1" fill="none" fill-rule="evenodd">
        <g id="project_avatar_plane">
            <g id="plane">
                <g>
                    <mask id="mask-2" fill="white">
                        <use xlink:href="#path-1"></use>
                    </mask>
                    <use id="Rectangle" fill="#00C7E6" xlink:href="#path-1"></use>
                    <path d="M68.101,74.324 L44.671,97.754 L73.279,130.588 C73.279,130.588 92.075,138.572 96.55,136.575 L68.101,74.324 Z" id="Shape" fill="#2A5083" fill-rule="nonzero" ></path>
                    <path d="M84.991,80.553 L92.112,87.674 C93.444,89.006 93.444,91.186 92.112,92.518 L75.49,109.141 C72.199,112.432 66.815,112.432 63.525,109.141 L63.525,109.141 C60.234,105.85 60.234,100.466 63.525,97.176 L80.147,80.554 C81.479,79.221 83.659,79.221 84.991,80.553 Z" id="Shape" fill="#DEEBFF" fill-rule="nonzero" ></path>
                    <path d="M84.991,80.553 L88.552,84.114 L63.525,109.141 C60.234,105.85 60.234,100.466 63.525,97.176 L80.147,80.554 C81.479,79.221 83.659,79.221 84.991,80.553 Z" id="Shape" fill="#194063" fill-rule="nonzero" opacity="0.2" ></path>
                    <path d="M-0.498,55.283 L28.325,80.937 L51.755,57.507 L-3.36,33.539 C-3.36,33.539 0.359,49.035 -0.498,55.283 Z" id="Shape" fill="#2A5083" fill-rule="nonzero" ></path>
                    <path d="M101.639,24.782 C95.065,18.207 79.54,23.071 66.966,35.646 L-3.8,104.412 C-0.71,109.906 -7.835,125.894 -3.324,130.231 L102.759,26.148 C102.431,25.659 102.059,25.201 101.639,24.782 Z" id="Shape" fill="#FFFFFF" fill-rule="nonzero" ></path>
                    <path d="M-2.536,128.037 C1.44,132.069 9.95,132.567 14.874,135.437 L90.856,59.455 C103.431,46.88 108.295,31.356 101.721,24.781 L-2.536,128.037 Z" id="Shape" fill="#DEEBFF" fill-rule="nonzero" ></path>
                    <path d="M45.639,41.201 L38.518,34.08 C37.186,32.748 35.006,32.748 33.674,34.08 L17.051,50.702 C13.76,53.993 13.76,59.377 17.051,62.667 L17.051,62.667 C20.342,65.958 25.726,65.958 29.016,62.667 L45.638,46.045 C46.971,44.713 46.971,42.533 45.639,41.201 Z" id="Shape" fill="#FFFFFF" fill-rule="nonzero" ></path>
                    <path d="M45.639,41.201 L42.078,37.64 L17.051,62.667 C20.342,65.958 25.726,65.958 29.016,62.667 L45.638,46.045 C46.971,44.713 46.971,42.533 45.639,41.201 Z" id="Shape" fill="#DEEBFF" fill-rule="nonzero" opacity="0.2" ></path>
                    <path d="M71.965,63.574 L63.024,54.633 C61.318,52.927 61.318,50.137 63.024,48.431 L65.099,46.356 C66.805,44.65 69.595,44.65 71.301,46.356 L80.242,55.297 C81.948,57.003 81.948,59.793 80.242,61.499 L78.167,63.574 C76.461,65.28 73.67,65.28 71.965,63.574 Z" id="Shape" fill="#194063" fill-rule="nonzero" opacity="0.2" ></path>
                    <path d="M71.905,60.107 L71.193,59.395 C70.607,58.809 70.607,57.851 71.193,57.266 L73.946,54.513 C74.532,53.927 75.49,53.927 76.075,54.513 L76.788,55.225 C77.374,55.811 77.374,56.769 76.788,57.354 L74.035,60.107 C73.449,60.693 72.491,60.693 71.905,60.107 Z" id="Shape" fill="#194063" fill-rule="nonzero" ></path>
                    <path d="M66.965,55.167 L66.252,54.455 C65.666,53.869 65.666,52.911 66.252,52.326 L69.005,49.573 C69.591,48.987 70.549,48.987 71.134,49.573 L71.846,50.285 C72.432,50.871 72.432,51.829 71.846,52.414 L69.093,55.167 C68.509,55.752 67.55,55.752 66.965,55.167 Z" id="Shape" fill="#194063" fill-rule="nonzero" ></path>
                </g>
            </g>
        </g>
    </g>
</svg>