<?xml version="1.0" encoding="UTF-8" standalone="no"?>
<svg width="128px" height="128px" viewBox="0 0 128 128" version="1.1" xmlns="http://www.w3.org/2000/svg" xmlns:xlink="http://www.w3.org/1999/xlink" style="background: #FFFFFF;">
    <!-- Generator: Sketch 42 (36781) - http://www.bohemiancoding.com/sketch -->
    <title>project_avatar_power</title>
    <desc>Created with Sketch.</desc>
    <defs>
        <rect id="path-1" x="0" y="0" width="128" height="128"></rect>
    </defs>
    <g id="Page-1" stroke="none" stroke-width="1" fill="none" fill-rule="evenodd">
        <g id="project_avatar_power">
            <g id="Power">
                <g>
                    <mask id="mask-2" fill="white">
                        <use xlink:href="#path-1"></use>
                    </mask>
                    <use id="Rectangle" fill="#00C7E6" xlink:href="#path-1"></use>
                    <path d="M69.84,38.733 L22.659,38.733 C19.222,38.733 16.41,41.545 16.41,44.982 L16.41,79.206 C16.41,82.643 19.222,85.455 22.659,85.455 L69.84,85.455 L69.84,38.733 Z" id="Shape" fill="#5243AA" fill-rule="nonzero" ></path>
                    <path d="M109.949,73.725 L98.375,73.725 C96.725,73.725 95.375,72.375 95.375,70.725 L95.375,54.572 C95.375,52.922 96.725,51.572 98.375,51.572 L109.949,51.572 C111.599,51.572 112.949,52.922 112.949,54.572 L112.949,70.725 C112.949,72.375 111.599,73.725 109.949,73.725 Z" id="Shape" fill="#FFFFFF" fill-rule="nonzero" ></path>
                    <path d="M100.319,38.733 L100.007,38.733 L96.223,38.733 L95.91,38.733 L73.936,38.733 L73.624,38.733 L69.84,38.733 L69.528,38.733 L69.528,85.454 L69.84,85.454 L73.624,85.454 L73.936,85.454 L95.91,85.454 L96.222,85.454 L100.006,85.454 L100.318,85.454 C103.755,85.454 106.567,82.642 106.567,79.205 L106.567,44.982 C106.568,41.545 103.756,38.733 100.319,38.733 Z" id="Shape" fill="#FFBD17" fill-rule="nonzero" ></path>
                    <path d="M106.255,62.044 L69.84,62.044 L69.528,62.044 L69.528,85.405 L69.84,85.405 L71.084,85.405 L71.396,85.405 L73.623,85.405 L73.935,85.405 L95.91,85.405 L96.222,85.405 L100.006,85.405 L100.318,85.405 C103.755,85.405 106.567,82.593 106.567,79.156 L106.567,62.044 L106.255,62.044 Z" id="Shape" fill="#F2900F" fill-rule="nonzero" ></path>
                    <path d="M88.83,71.588 L87.577,71.588 C86.528,71.588 85.669,70.729 85.669,69.68 L85.669,54.508 C85.669,53.459 86.528,52.6 87.577,52.6 L88.83,52.6 C89.879,52.6 90.738,53.459 90.738,54.508 L90.738,69.68 C90.738,70.729 89.879,71.588 88.83,71.588 Z" id="Shape" fill="#403294" fill-rule="nonzero" ></path>
                    <path d="M78.71,62.72 L78.71,61.467 C78.71,60.418 79.569,59.559 80.618,59.559 L95.79,59.559 C96.839,59.559 97.698,60.418 97.698,61.467 L97.698,62.72 C97.698,63.769 96.839,64.628 95.79,64.628 L80.618,64.628 C79.569,64.628 78.71,63.77 78.71,62.72 Z" id="Shape" fill="#403294" fill-rule="nonzero" ></path>
                    <path d="M16.411,62.044 L16.411,79.156 C16.411,82.593 19.223,85.405 22.66,85.405 L69.528,85.405 L69.528,62.044 L16.411,62.044 Z" id="Shape" fill="#403294" fill-rule="nonzero" ></path>
                </g>
            </g>
        </g>
    </g>
</svg>