<?xml version="1.0" encoding="UTF-8" standalone="no"?>
<svg width="128px" height="128px" viewBox="0 0 128 128" version="1.1" xmlns="http://www.w3.org/2000/svg" xmlns:xlink="http://www.w3.org/1999/xlink" style="background: #FFFFFF;">
    <!-- Generator: Sketch 42 (36781) - http://www.bohemiancoding.com/sketch -->
    <title>project_avatar_refresh</title>
    <desc>Created with Sketch.</desc>
    <defs>
        <rect id="path-1" x="0" y="0" width="128" height="128"></rect>
    </defs>
    <g id="Page-1" stroke="none" stroke-width="1" fill="none" fill-rule="evenodd">
        <g id="project_avatar_refresh">
            <g id="Refresh">
                <g>
                    <mask id="mask-2" fill="white">
                        <use xlink:href="#path-1"></use>
                    </mask>
                    <use id="Rectangle" fill="#6555C0" xlink:href="#path-1"></use>
                    <circle id="Oval" fill="#8777D9" fill-rule="nonzero"  cx="80.078" cy="90.901" r="15.576"></circle>
                    <circle id="Oval" fill="#8777D9" fill-rule="nonzero"  cx="47.719" cy="35.189" r="15.576"></circle>
                    <path d="M28.744,77.102 C26.275,77.75 23.848,78.394 21.416,79.021 C19.764,79.447 18.771,78.496 19.196,76.824 C21.493,67.787 23.809,58.755 26.143,49.728 C26.628,47.852 27.858,47.541 29.236,48.942 C34.385,54.177 39.513,59.434 44.647,64.684 C46,66.067 47.359,67.444 48.697,68.841 C49.954,70.155 49.625,71.436 47.894,71.928 C45.556,72.592 43.207,73.219 40.494,73.963 C41.816,75.94 42.882,77.874 44.268,79.542 C48.864,85.077 54.771,88.195 61.979,88.861 C67.472,89.368 72.51,88.047 77.305,85.452 C81.493,83.185 86.418,86.166 86.309,90.887 C86.258,93.096 85.226,94.857 83.315,95.955 C76.196,100.042 68.529,101.829 60.362,100.828 C45.693,99.029 35.305,91.29 29.142,77.866 C29.029,77.621 28.893,77.387 28.744,77.102 Z" id="Shape" fill="#00C7E6" fill-rule="nonzero" ></path>
                    <path d="M87.743,52.194 C85.932,48.382 83.531,45.305 80.411,42.793 C75.825,39.1 70.536,37.226 64.692,37.09 C60.04,36.982 55.634,38.137 51.56,40.433 C49.865,41.388 48.107,41.753 46.232,41.079 C43.804,40.206 42.401,38.43 42.155,35.904 C41.912,33.415 42.956,31.404 45.122,30.131 C50.128,27.189 55.554,25.433 61.344,25.106 C73.508,24.42 83.875,28.458 92.276,37.342 C95.176,40.408 97.399,43.938 99.1,47.798 C99.272,48.187 99.45,48.573 99.646,49.005 C102.119,48.349 104.506,47.708 106.898,47.084 C108.736,46.605 109.663,47.579 109.176,49.491 C107.691,55.325 106.19,61.155 104.701,66.988 C103.932,70 103.177,73.015 102.408,76.027 C102.202,76.834 102.009,77.849 101.046,77.878 C100.384,77.898 99.547,77.461 99.056,76.964 C92.588,70.422 86.164,63.837 79.739,57.253 C78.441,55.923 78.808,54.639 80.638,54.122 C82.941,53.471 85.256,52.866 87.743,52.194 Z" id="Shape" fill="#FFFFFF" fill-rule="nonzero" ></path>
                </g>
            </g>
        </g>
    </g>
</svg>