<?xml version="1.0" encoding="UTF-8" standalone="no"?>
<svg width="128px" height="128px" viewBox="0 0 128 128" version="1.1" xmlns="http://www.w3.org/2000/svg" xmlns:xlink="http://www.w3.org/1999/xlink" style="background: #FFFFFF;">
    <!-- Generator: Sketch 42 (36781) - http://www.bohemiancoding.com/sketch -->
    <title>project_avatar_cloud</title>
    <desc>Created with Sketch.</desc>
    <g id="Page-1" stroke="none" stroke-width="1" fill="none" fill-rule="evenodd">
        <g id="project_avatar_cloud">
            <g id="Cloud">
                <g>
                    <mask id="mask-2" fill="white">
                        <rect id="path-1" x="0" y="0" width="128" height="128"></rect>
                    </mask>
                    <rect id="Rectangle" x="0" y="0" width="128" height="128" fill="#2684FF"></rect>
                    <path d="M101.421,74.861 C101.421,66.213 95.025,59.077 86.708,57.877 C87.596,55.293 88.102,52.531 88.102,49.645 C88.102,39.039 80.237,28.953 70.814,25.038 C63.924,26.73 58.139,31.23 54.752,37.266 C51.877,33.909 47.615,31.774 42.849,31.774 C34.191,31.774 27.172,38.793 27.172,47.451 C27.172,49.501 27.577,51.454 28.293,53.25 C19.264,54.992 12.442,62.927 12.442,72.464 C12.442,83.277 21.208,92.043 32.021,92.043 L88.259,92.043 C95.569,89.697 101.421,82.607 101.421,74.861 Z" id="Shape" fill="#FFFFFF" fill-rule="nonzero" ></path>
                    <path d="M70.35,65.699 L55.753,65.699 C55.442,65.699 55.189,65.951 55.189,66.263 C55.189,69.036 56.625,71.474 58.794,72.874 C58.815,72.888 58.837,72.901 58.858,72.915 L58.874,72.915 C60.085,73.677 61.514,74.125 63.051,74.125 C64.592,74.125 66.026,73.675 67.239,72.908 L67.243,72.915 C69.448,71.522 70.913,69.064 70.913,66.263 C70.914,65.952 70.661,65.699 70.35,65.699 Z" id="Shape" fill="#FF4E4A" fill-rule="nonzero"></path>
                    <circle id="Oval" fill="#333333" fill-rule="nonzero" cx="51.722" cy="59.05" r="2.85"></circle>
                    <circle id="Oval" fill="#333333" fill-rule="nonzero" cx="74.379" cy="59.05" r="2.85"></circle>
                    <path d="M100.817,57.876 C101.705,55.292 102.211,52.53 102.211,49.644 C102.211,35.644 90.862,24.294 76.861,24.294 C74.233,24.294 71.705,24.707 69.322,25.451 C79.617,28.675 87.087,38.286 87.087,49.644 C87.087,52.53 86.582,55.292 85.693,57.876 C94.009,59.076 100.406,66.212 100.406,74.86 C100.406,84.349 92.714,92.042 83.224,92.042 L98.347,92.042 C107.836,92.042 115.529,84.35 115.529,74.86 C115.53,66.212 109.133,59.076 100.817,57.876 Z" id="Shape" fill="#B3D4FF" fill-rule="nonzero"></path>
                </g>
            </g>
        </g>
    </g>
</svg>