<?xml version="1.0" encoding="UTF-8" standalone="no"?>
<svg width="128px" height="128px" viewBox="0 0 128 128" version="1.1" xmlns="http://www.w3.org/2000/svg" xmlns:xlink="http://www.w3.org/1999/xlink" style="background: #FFFFFF;">
    <!-- Generator: Sketch 42 (36781) - http://www.bohemiancoding.com/sketch -->
    <title>project_avatar_spanner</title>
    <desc>Created with Sketch.</desc>
    <defs>
        <rect id="path-1" x="0" y="0" width="128" height="128"></rect>
    </defs>
    <g id="Page-1" stroke="none" stroke-width="1" fill="none" fill-rule="evenodd">
        <g id="project_avatar_spanner">
            <g id="Spanner">
                <g>
                    <mask id="mask-2" fill="white">
                        <use xlink:href="#path-1"></use>
                    </mask>
                    <use id="Rectangle" fill="#FF5630" xlink:href="#path-1"></use>
                    <path d="M80.039,20.27 C79.787,20.086 79.5,19.951 79.189,19.87 C79.112,19.837 79.039,19.796 78.962,19.763 C78.792,19.798 78.674,19.779 78.551,19.779 C77.15,19.779 76.014,20.915 76.014,22.316 C76.014,22.439 76.033,22.557 76.05,22.675 L76.014,52.683 C76.014,53.58 75.594,54.425 74.88,54.966 L65.721,61.908 C64.703,62.679 63.747,61.908 63.747,61.908 L54.588,54.966 C53.873,54.424 53.453,53.579 53.453,52.683 L53.453,22.438 C53.453,20.915 52.317,19.779 50.916,19.779 C50.269,19.779 49.684,20.029 49.236,20.428 C37.058,26.248 28.622,38.635 28.622,53.032 C28.622,64.306 33.782,74.374 41.867,81.007 C42.269,81.337 42.675,81.655 43.087,81.965 C45.38,83.967 50.11,89.169 50.11,98.036 L50.11,128.459 C54.571,129.444 59.201,128.98 63.959,128.98 C69.309,128.98 74.502,130.313 79.469,129.076 L79.469,97.516 C79.65,89.158 84.027,84.147 86.321,82.097 C95.205,75.506 100.964,64.942 100.964,53.031 C100.964,38.511 92.387,26.025 80.039,20.27 Z" id="Shape" fill="#F0F4F7" fill-rule="nonzero" ></path>
                    <path d="M63.959,127.982 C65.608,127.982 67.236,127.898 68.852,127.774 L68.852,98.765 C68.852,96.533 67.026,94.706 64.793,94.706 C62.561,94.706 60.734,96.532 60.734,98.765 L60.734,127.892 C61.803,127.946 62.876,127.982 63.959,127.982 Z" id="Shape" fill="#BACBD6" fill-rule="nonzero" ></path>
                    <circle id="Oval" fill="#BACBD6" fill-rule="nonzero"  cx="64.729" cy="79.46" r="7.695"></circle>
                    <path d="M80.039,20.28 C79.787,20.096 79.5,19.961 79.189,19.88 C79.112,19.847 79.039,19.806 78.962,19.773 C78.792,19.808 78.674,19.789 78.551,19.789 C77.15,19.789 76.014,20.925 76.014,22.326 C76.014,22.449 76.033,22.567 76.05,22.685 L76.014,52.693 C76.014,53.59 75.594,54.435 74.88,54.976 L65.721,61.918 C65.394,62.166 65.078,62.245 64.794,62.251 L64.794,127.969 C69.849,127.904 74.762,130.259 79.47,129.086 L79.47,97.526 C79.651,89.168 84.028,84.157 86.322,82.107 C95.206,75.516 100.965,64.952 100.965,53.041 C100.964,38.522 92.387,26.035 80.039,20.28 Z" id="Shape" fill="#00425B" fill-rule="nonzero" opacity="0.2" ></path>
                </g>
            </g>
        </g>
    </g>
</svg>