<?xml version="1.0" encoding="UTF-8" standalone="no"?>
<svg width="128px" height="128px" viewBox="0 0 128 128" version="1.1" xmlns="http://www.w3.org/2000/svg" xmlns:xlink="http://www.w3.org/1999/xlink" style="background: #FFFFFF;">
    <!-- Generator: Sketch 42 (36781) - http://www.bohemiancoding.com/sketch -->
    <title>project_avatar_storm</title>
    <desc>Created with Sketch.</desc>
    <defs>
        <rect id="path-1" x="0" y="0" width="128" height="128"></rect>
    </defs>
    <g id="Page-1" stroke="none" stroke-width="1" fill="none" fill-rule="evenodd">
        <g id="project_avatar_storm">
            <g id="Storm">
                <g>
                    <mask id="mask-2" fill="white">
                        <use xlink:href="#path-1"></use>
                    </mask>
                    <use id="Rectangle" fill="#6555C0" xlink:href="#path-1"></use>
                    <path d="M66.201,58.441 L43.821,86.756 C42.91,87.908 43.731,89.603 45.2,89.603 L55.583,89.603 C57.092,89.603 57.899,91.379 56.907,92.516 L45.135,106.001 C43.81,107.519 45.666,109.709 47.381,108.652 L83.527,86.374 C85.035,85.445 84.376,83.121 82.605,83.121 L71.031,83.121 C69.457,83.121 68.677,81.211 69.801,80.109 L89.514,60.786 C90.638,59.684 89.858,57.774 88.284,57.774 L67.58,57.774 C67.042,57.773 66.534,58.019 66.201,58.441 Z" id="Shape" fill="#FFC400" fill-rule="nonzero" ></path>
                    <path d="M97.187,61.167 C97.187,53.683 91.652,47.508 84.456,46.47 C85.225,44.234 85.662,41.844 85.662,39.346 C85.662,30.168 78.856,21.44 70.702,18.052 C64.739,19.516 59.734,23.41 56.803,28.634 C54.315,25.729 50.627,23.882 46.503,23.882 C39.011,23.882 32.937,29.955 32.937,37.448 C32.937,39.222 33.287,40.912 33.907,42.466 C26.093,43.973 20.19,50.84 20.19,59.093 C20.19,68.45 27.775,76.035 37.132,76.035 L85.797,76.035 C92.124,74.006 97.187,67.87 97.187,61.167 Z" id="Shape" fill="#FFFFFF" fill-rule="nonzero" ></path>
                    <path d="M96.665,46.47 C97.434,44.234 97.871,41.844 97.871,39.347 C97.871,27.232 88.05,17.411 75.935,17.411 C73.661,17.411 71.473,17.769 69.411,18.412 C78.319,21.202 84.784,29.519 84.784,39.347 C84.784,41.844 84.347,44.234 83.578,46.47 C90.774,47.508 96.309,53.683 96.309,61.167 C96.309,69.378 89.652,76.035 81.441,76.035 L94.528,76.035 C102.739,76.035 109.396,69.378 109.396,61.167 C109.396,53.684 103.861,47.509 96.665,46.47 Z" id="Shape" fill="#B3D4FF" fill-rule="nonzero" ></path>
                    <path d="M97.66,92.392 L97.66,92.392 C95.813,92.392 94.302,90.881 94.302,89.034 L94.302,83.355 C94.302,81.508 95.813,79.997 97.66,79.997 L97.66,79.997 C99.507,79.997 101.018,81.508 101.018,83.355 L101.018,89.034 C101.019,90.881 99.507,92.392 97.66,92.392 Z" id="Shape" fill="#FFFFFF" fill-rule="nonzero" opacity="0.5" ></path>
                    <path d="M84.805,105.659 L84.805,105.659 C82.958,105.659 81.447,104.148 81.447,102.301 L81.447,96.622 C81.447,94.775 82.958,93.264 84.805,93.264 L84.805,93.264 C86.652,93.264 88.163,94.775 88.163,96.622 L88.163,102.301 C88.163,104.148 86.652,105.659 84.805,105.659 Z" id="Shape" fill="#FFFFFF" fill-rule="nonzero" opacity="0.5" ></path>
                    <path d="M31.325,90.438 L31.325,90.438 C29.478,90.438 27.967,88.927 27.967,87.08 L27.967,81.401 C27.967,79.554 29.478,78.043 31.325,78.043 L31.325,78.043 C33.172,78.043 34.683,79.554 34.683,81.401 L34.683,87.08 C34.683,88.927 33.172,90.438 31.325,90.438 Z" id="Shape" fill="#FFFFFF" fill-rule="nonzero" opacity="0.5" ></path>
                </g>
            </g>
        </g>
    </g>
</svg>