<?xml version="1.0" encoding="UTF-8" standalone="no"?>
<svg width="128px" height="128px" viewBox="0 0 128 128" version="1.1" xmlns="http://www.w3.org/2000/svg" xmlns:xlink="http://www.w3.org/1999/xlink" style="background: #FFFFFF;">
    <!-- Generator: Sketch 42 (36781) - http://www.bohemiancoding.com/sketch -->
    <title>project_avatar_support</title>
    <desc>Created with Sketch.</desc>
    <defs>
        <rect id="path-1" x="0" y="0" width="128" height="128"></rect>
    </defs>
    <g id="Page-1" stroke="none" stroke-width="1" fill="none" fill-rule="evenodd">
        <g id="project_avatar_support">
            <g>
                <mask id="mask-2" fill="white">
                    <use xlink:href="#path-1"></use>
                </mask>
                <use id="Rectangle" fill="#00C7E6" xlink:href="#path-1"></use>
                <g id="support" >
                    <g transform="translate(17.000000, 18.000000)">
                        <path d="M8.639,37.72 C5.345,34.306 3.309,29.669 3.309,24.549 C3.309,14.064 11.808,5.565 22.293,5.565 C27.762,5.565 32.677,7.891 36.142,11.593 L37.784,10.033 C33.907,5.897 28.41,3.298 22.294,3.298 C10.557,3.298 1.043,12.812 1.043,24.549 C1.043,30.273 3.318,35.459 6.998,39.28 L8.639,37.72 Z" id="Shape" fill="#EBF2F9" fill-rule="nonzero"></path>
                        <path d="M83.807,37.815 C87.101,34.401 89.137,29.764 89.137,24.644 C89.137,14.159 80.638,5.66 70.153,5.66 C64.684,5.66 59.769,7.986 56.304,11.688 L54.662,10.128 C58.539,5.992 64.036,3.393 70.152,3.393 C81.889,3.393 91.403,12.907 91.403,24.644 C91.403,30.368 89.128,35.554 85.448,39.375 L83.807,37.815 Z" id="Shape" fill="#EBF2F9" fill-rule="nonzero"></path>
                        <path d="M83.807,58.024 C87.101,61.438 89.137,66.075 89.137,71.195 C89.137,81.68 80.638,90.179 70.153,90.179 C64.684,90.179 59.769,87.853 56.304,84.151 L54.662,85.711 C58.539,89.847 64.036,92.446 70.152,92.446 C81.889,92.446 91.403,82.932 91.403,71.195 C91.403,65.471 89.128,60.285 85.448,56.464 L83.807,58.024 Z" id="Shape" fill="#EBF2F9" fill-rule="nonzero"></path>
                        <path d="M9.772,57.929 C6.478,61.343 4.442,65.98 4.442,71.1 C4.442,81.585 12.941,90.084 23.426,90.084 C28.895,90.084 33.81,87.758 37.275,84.056 L38.917,85.616 C35.04,89.752 29.543,92.351 23.427,92.351 C11.69,92.351 2.176,82.837 2.176,71.1 C2.176,65.376 4.451,60.19 8.131,56.369 L9.772,57.929 Z" id="Shape" fill="#EBF2F9" fill-rule="nonzero"></path>
                        <path d="M13.671,14.558 C-4.443,32.672 -4.443,62.04 13.671,80.154 C31.785,98.268 61.153,98.268 79.267,80.154 C97.381,62.04 97.381,32.672 79.267,14.559 C61.153,-3.554 31.784,-3.556 13.671,14.558 Z M63.238,64.125 C53.977,73.386 38.961,73.386 29.699,64.125 C20.437,54.864 20.438,39.848 29.699,30.586 C38.96,21.325 53.976,21.325 63.238,30.586 C72.5,39.847 72.499,54.864 63.238,64.125 Z" id="Shape" fill="#FF4E4A" fill-rule="nonzero"></path>
                        <g id="Group" stroke-width="1" fill="none" fill-rule="evenodd" transform="translate(8.000000, 9.000000)">
                            <path d="M21.699,55.125 C19.832,53.258 18.361,51.151 17.247,48.911 L0.776,65.382 C2.228,67.402 3.854,69.337 5.671,71.153 C7.963,73.445 10.437,75.445 13.044,77.157 L29.783,60.418 C26.84,59.261 24.078,57.504 21.699,55.125 Z" id="Shape" fill="#FFFFFF" fill-rule="nonzero"></path>
                            <path d="M55.238,21.587 C57.617,23.966 59.374,26.727 60.531,29.671 L77.27,12.932 C75.558,10.325 73.558,7.851 71.266,5.559 C69.449,3.742 67.515,2.117 65.495,0.664 L49.024,17.134 C51.264,18.248 53.371,19.72 55.238,21.587 Z" id="Shape" fill="#FFFFFF" fill-rule="nonzero"></path>
                            <path d="M0.219,12.128 L16.817,28.726 C17.967,26.139 19.578,23.708 21.699,21.587 C23.82,19.466 26.252,17.855 28.838,16.705 L12.241,0.107 C9.93,1.695 7.725,3.504 5.671,5.558 C3.617,7.612 1.808,9.817 0.219,12.128 Z" id="Shape" fill="#FFFFFF" fill-rule="nonzero"></path>
                            <path d="M76.718,64.583 L60.12,47.986 C58.97,50.573 57.359,53.004 55.238,55.125 C53.117,57.246 50.685,58.857 48.099,60.007 L64.697,76.605 C67.008,75.017 69.213,73.208 71.267,71.154 C73.321,69.1 75.129,66.894 76.718,64.583 Z" id="Shape" fill="#FFFFFF" fill-rule="nonzero"></path>
                        </g>
                        <path d="M46.469,14.039 C28.069,14.039 13.153,28.955 13.153,47.355 C13.153,65.755 28.069,80.671 46.469,80.671 C64.869,80.671 79.785,65.755 79.785,47.355 C79.785,28.955 64.869,14.039 46.469,14.039 Z M63.238,64.125 C53.977,73.386 38.961,73.386 29.699,64.125 C20.438,54.864 20.438,39.848 29.699,30.586 C38.96,21.325 53.976,21.325 63.238,30.586 C72.5,39.847 72.499,54.864 63.238,64.125 Z" id="Shape" fill="#C92020" fill-rule="nonzero" opacity="0.2"></path>
                        <path d="M46.468,11.276 C26.542,11.276 10.389,27.429 10.389,47.355 C10.389,67.281 26.542,83.434 46.468,83.434 C66.394,83.434 82.547,67.281 82.547,47.355 C82.547,27.429 66.395,11.276 46.468,11.276 Z M46.469,80.672 C28.069,80.672 13.153,65.756 13.153,47.356 C13.153,28.956 28.069,14.04 46.469,14.04 C64.869,14.04 79.785,28.956 79.785,47.356 C79.785,65.756 64.869,80.672 46.469,80.672 Z" id="Shape" fill="#FFFFFF" fill-rule="nonzero" opacity="0.07"></path>
                    </g>
                </g>
            </g>
        </g>
    </g>
</svg>