<?xml version="1.0" encoding="UTF-8" standalone="no"?>
<svg width="128px" height="128px" viewBox="0 0 128 128" version="1.1" xmlns="http://www.w3.org/2000/svg" xmlns:xlink="http://www.w3.org/1999/xlink" style="background: #FFFFFF;">
    <!-- Generator: Sketch 42 (36781) - http://www.bohemiancoding.com/sketch -->
    <title>project_avatar_yeti</title>
    <desc>Created with Sketch.</desc>
    <defs>
        <rect id="path-1" x="0" y="0" width="128" height="128"></rect>
    </defs>
    <g id="Page-1" stroke="none" stroke-width="1" fill="none" fill-rule="evenodd">
        <g id="project_avatar_yeti">
            <g id="yeti">
                <g>
                    <mask id="mask-2" fill="white">
                        <use xlink:href="#path-1"></use>
                    </mask>
                    <use id="Rectangle" fill="#2684FF" xlink:href="#path-1"></use>
                    <circle id="Oval" fill="#FFBDAE" fill-rule="nonzero"  cx="25.367" cy="58.293" r="7.001"></circle>
                    <circle id="Oval" fill="#FFBDAE" fill-rule="nonzero"  cx="99.974" cy="58.293" r="7.001"></circle>
                    <path d="M62.67,10.657 C42.068,10.657 25.366,27.359 25.366,47.961 L25.366,57.28 L25.366,59.305 L25.366,68.624 L25.366,85.264 L25.366,94.583 L25.366,96.608 L25.366,105.927 L99.974,105.927 L99.974,96.608 L99.974,94.583 L99.974,85.264 L99.974,68.624 L99.974,59.305 L99.974,57.28 L99.974,47.961 C99.974,27.359 83.273,10.657 62.67,10.657 Z" id="Shape" fill="#FFFFFF" fill-rule="nonzero" ></path>
                    <path d="M75.894,28.875 L49.446,28.875 C40.368,28.875 32.94,36.303 32.94,45.381 L32.94,47.043 L32.94,51.169 L32.94,55.445 C32.94,71.864 46.25,85.175 62.67,85.175 C79.089,85.175 92.4,71.865 92.4,55.445 L92.4,51.169 L92.4,47.043 L92.4,45.38 C92.4,36.302 84.972,28.875 75.894,28.875 Z" id="Shape" fill="#FFBDAD" fill-rule="nonzero" ></path>
                    <path d="M50.532,72.734 C49.741,69.592 47.339,66.105 47.339,66.105 L47.324,66.111 C46.996,65.739 46.531,65.494 45.996,65.494 C45.008,65.494 44.207,66.295 44.207,67.283 C44.207,67.283 43.791,71.652 44.623,74.149 C45.456,76.645 51.13,75.108 50.532,72.734 Z" id="Shape" fill="#FFFFFF" fill-rule="nonzero" ></path>
                    <path d="M73.735,72.734 C74.526,69.592 76.928,66.105 76.928,66.105 L76.943,66.111 C77.271,65.739 77.736,65.494 78.271,65.494 C79.259,65.494 80.06,66.295 80.06,67.283 C80.06,67.283 80.476,71.652 79.644,74.149 C78.812,76.645 73.138,75.108 73.735,72.734 Z" id="Shape" fill="#FFFFFF" fill-rule="nonzero" ></path>
                    <path d="M46.17,45.6 L46.17,49.876 C46.17,51.999 47.891,53.72 50.014,53.72 C52.137,53.72 53.858,51.999 53.858,49.876 L53.858,45.6 L46.17,45.6 Z" id="Shape" fill="#403294" fill-rule="nonzero" ></path>
                    <path d="M72.064,45.6 L72.064,49.876 C72.064,51.999 73.785,53.72 75.908,53.72 C78.031,53.72 79.752,51.999 79.752,49.876 L79.752,45.6 L72.064,45.6 Z" id="Shape" fill="#403294" fill-rule="nonzero" ></path>
                    <path d="M68.663,63.952 L57.616,63.952 C56.09,63.952 54.842,62.704 54.842,61.178 L54.842,59.153 C54.842,57.627 56.09,56.379 57.616,56.379 L68.663,56.379 C70.189,56.379 71.437,57.627 71.437,59.153 L71.437,61.178 C71.437,62.704 70.189,63.952 68.663,63.952 Z" id="Shape" fill="#FF4E4A" fill-rule="nonzero" ></path>
                    <path d="M62.67,68.196 C54.165,68.196 46.54,71.173 41.123,75.889 C46.54,81.597 54.18,85.175 62.67,85.175 L62.671,85.175 C71.162,85.175 78.801,81.597 84.218,75.889 C78.801,71.172 71.175,68.196 62.67,68.196 Z" id="Shape" fill="#FF8F73" fill-rule="nonzero" ></path>
                    <path d="M81.837,48.741 L43.503,48.741 C41.665,48.741 40.161,47.237 40.161,45.399 L40.161,42.959 C40.161,41.121 41.665,39.617 43.503,39.617 L81.837,39.617 C83.675,39.617 85.179,41.121 85.179,42.959 L85.179,45.399 C85.18,47.237 83.676,48.741 81.837,48.741 Z" id="Shape" fill="#FF8F73" fill-rule="nonzero" ></path>
                    <path d="M86.63,10.332 L86.616,10.334 C85.03,13.339 75.424,15.41 77.635,12.569 C80.479,8.914 79.29,1.627 76.797,4.903 C72.565,10.464 62.67,10.645 62.67,10.645 L66.281,17.88 C66.281,17.88 82.46,20.995 85.838,18.723 C89.305,16.392 88.424,11.976 87.557,10.3 C86.978,9.273 86.63,10.332 86.63,10.332 Z" id="Shape" fill="#FFFFFF" fill-rule="nonzero" ></path>
                    <path d="M113,107.5 C113,107.5 103.765,86.772 92,86.772 L74.946,86.772 L51.355,86.772 L37.87,86.772 C26.687,86.772 20,92 15.509,105.649 C11.018,119.298 11.4389177,128.73953 12.5,130.5 C13.5610823,132.26047 24.7236645,127.248142 64.016,127.94 C100.575463,128.583737 109.416343,141.063937 114,132.5 C118.583657,123.936063 113,107.5 113,107.5 Z" id="Shape" fill="#FFFFFF" fill-rule="nonzero" ></path>
                    <path d="M63.849,129.94 C76.165,129.94 87.653,134.44 97.411,128.408 L97.411,115.28 C97.411,104.759 88.803,96.151 78.283,96.151 L47.058,96.151 C36.537,96.151 27.93,104.759 27.93,115.28 L27.93,128.893 C38.167,135.863 50.529,129.94 63.849,129.94 Z" id="Shape" fill="#FFBDAE" fill-rule="nonzero" ></path>
                    <circle id="Oval" fill="#FF8F73" fill-rule="nonzero"  cx="48.612" cy="117.676" r="4.23"></circle>
                    <circle id="Oval" fill="#FF8F73" fill-rule="nonzero"  cx="76.482" cy="117.676" r="4.23"></circle>
                </g>
            </g>
        </g>
    </g>
</svg>