<?xml version="1.0" encoding="UTF-8" standalone="no"?>
<svg width="128px" height="128px" viewBox="0 0 128 128" version="1.1" xmlns="http://www.w3.org/2000/svg" xmlns:xlink="http://www.w3.org/1999/xlink" style="background: #FFFFFF;">
    <!-- Generator: Sketch 42 (36781) - http://www.bohemiancoding.com/sketch -->
    <title>project_avatar_code</title>
    <desc>Created with Sketch.</desc>
    <defs>
        <rect id="path-1" x="0" y="0" width="128" height="128"></rect>
    </defs>
    <g id="Page-1" stroke="none" stroke-width="1" fill="none" fill-rule="evenodd">
        <g id="project_avatar_code">
            <g id="code">
                <g>
                    <mask id="mask-2" fill="white">
                        <use xlink:href="#path-1"></use>
                    </mask>
                    <use id="Rectangle" fill="#FF5630" xlink:href="#path-1"></use>
                    <path d="M130.3,45.7 C128.5,39.5 131.7,33.7 128.2,28.5 L36.2,28.5 C32.5,28.5 29.5,31.5 29.5,35.2 L29.5,45.7 L130.3,45.7 Z" id="Shape" fill="#EBF2F9" fill-rule="nonzero" ></path>
                    <circle id="Oval" fill="#FF5630" fill-rule="nonzero"  cx="41.6" cy="37.3" r="3"></circle>
                    <circle id="Oval" fill="#FFC400" fill-rule="nonzero"  cx="50.2" cy="37.3" r="3"></circle>
                    <circle id="Oval" fill="#00B8D9" fill-rule="nonzero"  cx="58.7" cy="37.3" r="3"></circle>
                    <path d="M128.9,128 C128.9,128 130.9,51.3 129.1,45.4 L49.7,45.4 L47.7,45.4 L40.5,45.4 L38.5,45.4 L31.5,45.4 L29.5,45.4 L29.5,133.3 C36.5,138 128.9,128 128.9,128 Z" id="Shape" fill="#253858" fill-rule="nonzero" ></path>
                    <path d="M78.9,68.2 L42.6,68.2 C40.4,68.2 38.6,66.4 38.6,64.2 L38.6,64.2 C38.6,62 40.4,60.2 42.6,60.2 L79,60.2 C81.2,60.2 83,62 83,64.2 L83,64.2 C82.9,66.4 81.1,68.2 78.9,68.2 Z" id="Shape" fill="#EBF2F9" fill-rule="nonzero" ></path>
                    <path d="M96.4,68.2 L92.7,68.2 C90.5,68.2 88.7,66.4 88.7,64.2 L88.7,64.2 C88.7,62 90.5,60.2 92.7,60.2 L96.4,60.2 C98.6,60.2 100.4,62 100.4,64.2 L100.4,64.2 C100.4,66.4 98.6,68.2 96.4,68.2 Z" id="Shape" fill="#4C9AFF" fill-rule="nonzero" ></path>
                    <path d="M54.8,85.7 L42.6,85.7 C40.4,85.7 38.6,83.9 38.6,81.7 L38.6,81.7 C38.6,79.5 40.4,77.7 42.6,77.7 L54.8,77.7 C57,77.7 58.8,79.5 58.8,81.7 L58.8,81.7 C58.7,83.9 56.9,85.7 54.8,85.7 Z" id="Shape" fill="#FF5630" fill-rule="nonzero" ></path>
                    <path d="M66.5,103.2 L42.5,103.2 C40.3,103.2 38.5,101.4 38.5,99.2 L38.5,99.2 C38.5,97 40.3,95.2 42.5,95.2 L66.5,95.2 C68.7,95.2 70.5,97 70.5,99.2 L70.5,99.2 C70.5,101.4 68.7,103.2 66.5,103.2 Z" id="Shape" fill="#EBF2F9" fill-rule="nonzero" ></path>
                    <path d="M83.1,103.2 L80.5,103.2 C78.3,103.2 76.5,101.4 76.5,99.2 L76.5,99.2 C76.5,97 78.3,95.2 80.5,95.2 L83.1,95.2 C85.3,95.2 87.1,97 87.1,99.2 L87.1,99.2 C87.1,101.4 85.3,103.2 83.1,103.2 Z" id="Shape" fill="#FF4E4A" fill-rule="nonzero" ></path>
                    <path d="M105.4,85.7 L68.7,85.7 C66.5,85.7 64.7,83.9 64.7,81.7 L64.7,81.7 C64.7,79.5 66.5,77.7 68.7,77.7 L105.3,77.7 C107.5,77.7 109.3,79.5 109.3,81.7 L109.3,81.7 C109.4,83.9 107.6,85.7 105.4,85.7 Z" id="Shape" fill="#00B8D9" fill-rule="nonzero" ></path>
                </g>
            </g>
        </g>
    </g>
</svg>