<?xml version="1.0" encoding="UTF-8" standalone="no"?>
<svg width="128px" height="128px" viewBox="0 0 128 128" version="1.1" xmlns="http://www.w3.org/2000/svg" xmlns:xlink="http://www.w3.org/1999/xlink" style="background: #FFFFFF;">
    <!-- Generator: Sketch 42 (36781) - http://www.bohemiancoding.com/sketch -->
    <title>project_avatar_drill</title>
    <desc>Created with Sketch.</desc>
    <defs>
        <rect id="path-1" x="0" y="0" width="128" height="128"></rect>
    </defs>
    <g id="Page-1" stroke="none" stroke-width="1" fill="none" fill-rule="evenodd">
        <g id="project_avatar_drill">
            <g id="drill">
                <g>
                    <mask id="mask-2" fill="white">
                        <use xlink:href="#path-1"></use>
                    </mask>
                    <use id="Rectangle" fill="#6555C0" xlink:href="#path-1"></use>
                    <circle id="Oval" fill="#194063" fill-rule="nonzero"  cx="79.305" cy="73.344" r="10.152"></circle>
                    <path d="M93.474,106.423 L93.474,106.423 C101.133,106.423 107.399,100.157 107.399,92.498 L107.399,68.75 C107.399,61.091 101.133,54.825 93.474,54.825 L93.474,54.825 C85.815,54.825 79.549,61.091 79.549,68.75 L79.549,92.497 C79.548,100.156 85.815,106.423 93.474,106.423 Z" id="Shape" fill="#FFC400" fill-rule="nonzero" ></path>
                    <path d="M43.305,57.81 L17.559,57.81 C14.01,57.81 11.106,54.906 11.106,51.357 L11.106,51.357 C11.106,47.808 14.01,44.904 17.559,44.904 L43.306,44.904 C46.87,44.904 49.759,47.793 49.759,51.357 L49.759,51.357 C49.758,54.906 46.854,57.81 43.305,57.81 Z" id="Shape" fill="#FFFFFF" fill-rule="nonzero" ></path>
                    <polygon id="Shape" fill="#D3E0EA" fill-rule="nonzero"  points="23.992 57.81 28.302 57.81 38.156 44.905 33.846 44.905"></polygon>
                    <path d="M48.186,34.92 L48.186,67.198 C48.186,69.889 50.368,72.071 53.059,72.071 L107.399,72.071 L107.399,46.245 C107.399,37.274 100.127,30.002 91.156,30.002 L53.059,30.002 C50.368,30.001 48.186,32.204 48.186,34.92 Z" id="Shape" fill="#FFC400" fill-rule="nonzero" ></path>
                    <path d="M48.186,34.87 L39.513,34.87 C36.822,34.87 34.64,37.052 34.64,39.743 L34.64,62.32 C34.64,65.011 36.822,67.193 39.513,67.193 L48.186,67.193 L48.186,34.87 Z" id="Shape" fill="#2A5083" fill-rule="nonzero" ></path>
                    <path d="M48.186,67.198 L48.186,34.875 L44.274,34.875 C44.274,34.892 44.269,34.909 44.269,34.926 L44.269,67.198 L48.186,67.198 L48.186,67.198 Z" id="Shape" fill="#194063" fill-rule="nonzero" ></path>
                    <path d="M92.382,45.485 L75.784,45.485 C74.976,45.485 74.314,44.824 74.314,44.015 L74.314,42.18 C74.314,41.372 74.975,40.71 75.784,40.71 L92.382,40.71 C93.19,40.71 93.852,41.371 93.852,42.18 L93.852,44.015 C93.852,44.823 93.191,45.485 92.382,45.485 Z" id="Shape" fill="#2A5083" fill-rule="nonzero" ></path>
                    <path d="M92.382,53.453 L75.784,53.453 C74.976,53.453 74.314,52.792 74.314,51.983 L74.314,50.148 C74.314,49.34 74.975,48.678 75.784,48.678 L92.382,48.678 C93.19,48.678 93.852,49.339 93.852,50.148 L93.852,51.983 C93.852,52.791 93.191,53.453 92.382,53.453 Z" id="Shape" fill="#2A5083" fill-rule="nonzero" ></path>
                    <path d="M92.382,61.285 L75.784,61.285 C74.976,61.285 74.314,60.624 74.314,59.815 L74.314,57.98 C74.314,57.172 74.975,56.51 75.784,56.51 L92.382,56.51 C93.19,56.51 93.852,57.171 93.852,57.98 L93.852,59.815 C93.852,60.623 93.191,61.285 92.382,61.285 Z" id="Shape" fill="#2A5083" fill-rule="nonzero" ></path>
                    <path d="M13.665,56.632 C14.646,57.321 15.824,57.732 17.095,57.784 L26.929,44.905 L22.619,44.905 L13.665,56.632 Z" id="Shape" fill="#D3E0EA" fill-rule="nonzero" ></path>
                    <path d="M81.421,72.072 L79.548,72.072 L79.548,72.232 L79.548,73.911 L79.548,92.058 C79.548,99.717 85.815,105.984 93.474,105.984 C93.533,105.984 93.59,105.976 93.649,105.975 L93.649,84.3 C93.649,77.574 88.147,72.072 81.421,72.072 Z" id="Shape" fill="#FF991F" fill-rule="nonzero" ></path>
                </g>
            </g>
        </g>
    </g>
</svg>