<?xml version="1.0" encoding="UTF-8" standalone="no"?>
<svg width="128px" height="128px" viewBox="0 0 128 128" version="1.1" xmlns="http://www.w3.org/2000/svg" xmlns:xlink="http://www.w3.org/1999/xlink" style="background: #FFFFFF;">
    <!-- Generator: Sketch 42 (36781) - http://www.bohemiancoding.com/sketch -->
    <title>project_avatar_food</title>
    <desc>Created with Sketch.</desc>
    <defs>
        <rect id="path-1" x="0" y="0" width="128" height="128"></rect>
    </defs>
    <g id="Page-1" stroke="none" stroke-width="1" fill="none" fill-rule="evenodd">
        <g id="project_avatar_food">
            <g id="food">
                <g>
                    <mask id="mask-2" fill="white">
                        <use xlink:href="#path-1"></use>
                    </mask>
                    <use id="Rectangle" fill="#FFC400" xlink:href="#path-1"></use>
                    <path d="M41.6,105.6 C49.6,107.1 58.3,104.7 64.5,98.6 L99.4,63.7 C105.7,57.4 108,48.6 106.4,40.5 L41.6,105.6 Z" id="Shape" fill="#FF991F" fill-rule="nonzero" ></path>
                    <path d="M91.1,21.8 C81.8,18 70.6,19.8 63.1,27.4 L28.2,62.3 C20.7,69.8 18.8,80.9 22.6,90.1 L91.1,21.8 Z" id="Shape" fill="#FF991F" fill-rule="nonzero" ></path>
                    <path d="M36.4,104.1 C38.3,104.9 40.2,105.4 42.1,105.7 L106.5,41.3 C106.2,39.3 105.6,37.4 104.8,35.5 L36.4,104.1 Z" id="Shape" fill="#FF8B01" fill-rule="nonzero" ></path>
                    <path d="M24.3,102.9 C24.6,103.2 25,103.5 25.3,103.8 L104.4,24.3 C104.2,24 103.9,23.7 103.7,23.5 L103.3,23.1 C99.4,19.2 93,19.2 89.2,23.1 L23.9,88.3 C20,92.2 20,98.6 23.9,102.4 L24.3,102.9 Z" id="Shape" fill="#FF5630" fill-rule="nonzero" ></path>
                    <path d="M38.6,102.7 L103.5,37.8 C107.5,33.8 107.5,27.3 103.5,23.3 L24.1,102.7 C28.1,106.7 34.6,106.7 38.6,102.7 Z" id="Shape" fill="#DE350A" fill-rule="nonzero" ></path>
                    <path d="M49.7,85.4 C53,81.1 53,77 53,76.7 L53,76.7 L53,76.7 L53,76.7 L53,76.7 L53,76.7 C53.1,75.4 53.8,68.3 61.5,68.2 L61.9,68.2 C63.2,68.3 67.1,68.2 71.2,64.1 L71.3,64 C71.8,63.5 72.2,63 72.7,62.4 C76,58.1 76,54.1 76,53.7 L76,53.7 L76,53.7 L76,53.7 L76,53.7 L76,53.7 C76.1,52.4 76.8,45.3 84.5,45.2 C85.3,45.2 86,44.9 86.6,44.3 C87.8,43.1 87.8,41.3 86.6,40.1 C86.1,39.6 85.4,39.3 84.7,39.3 L84.7,39.3 C84.7,39.3 80,38.3 74.9,43.3 L74.8,43.4 C74.3,43.9 73.9,44.4 73.4,45 C70.1,49.3 70.1,53.3 70.1,53.7 L70.1,53.7 L70.1,53.7 L70.1,53.7 L70.1,53.7 L70.1,53.7 C70,55 69.3,62.1 61.6,62.2 L61.2,62.2 C59.9,62.1 56,62.2 51.9,66.3 L51.8,66.4 C51.3,66.9 50.9,67.4 50.4,68 C47.1,72.3 47.1,76.3 47.1,76.7 L47.1,76.7 L47.1,76.7 L47.1,76.7 L47.1,76.7 L47.1,76.7 C47,78 46.3,85.1 38.6,85.2 C37.8,85.2 37.1,85.5 36.5,86.1 C35.3,87.3 35.3,89.1 36.5,90.3 C37,90.8 37.7,91.1 38.4,91.1 L38.4,91.1 C38.4,91.1 43.1,92.1 48.2,87.1 L48.3,87 C48.8,86.5 49.2,86 49.7,85.4 Z" id="Shape" fill="#FFA821" fill-rule="nonzero" ></path>
                    <g id="Group"  fill-rule="nonzero" fill="#FFFFFF">
                        <g transform="translate(39.000000, 35.000000)" id="Shape">
                            <path d="M6.4,38.1 C5.8,38.5 5.3,39 4.8,39.5 L4.7,39.6 C-0.3,44.6 0.7,49.4 0.7,49.4 L0.7,49.4 C0.7,49.7 0.8,49.9 0.9,50.2 C4.5,49.8 6.3,47.8 7.3,45.8 C7.4,45.6 7.4,45.5 7.5,45.4 C8.1,43.9 8.3,42.4 8.3,41.9 L8.3,41.9 L8.3,41.9 L8.3,41.9 L8.3,41.9 L8.3,41.9 C8.3,41.6 8.3,39.3 9.7,36.4 C8.5,36.6 7.4,37.3 6.4,38.1 Z"></path>
                            <path d="M29.4,15.1 C28.8,15.5 28.3,16 27.8,16.5 L27.7,16.6 C26.1,18.2 25.2,19.7 24.6,21 L24.6,21 C23.6,23.2 23.6,25.1 23.7,25.9 L23.7,26.3 C23.7,31.1 20.9,33.2 18.5,34.1 L18.5,34.1 L18.5,34.1 C15.3,35.7 14.4,39 14.2,40.8 C14.6,40.7 14.9,40.7 15.1,40.7 L15.1,40.7 L15.1,40.7 L15.1,40.7 L15.1,40.7 L15.1,40.7 C15.4,40.7 19.5,40.7 23.8,37.4 C24.4,37 24.9,36.5 25.4,36 L25.5,35.9 C26.8,34.6 27.8,33.2 28.4,32 L28.4,32 C29.7,29.5 29.7,27.4 29.6,26.5 L29.6,26.1 C29.6,24.8 29.8,23.7 30.2,22.8 C30.2,22.8 30.2,22.7 30.3,22.7 C30.4,22.5 30.4,22.4 30.5,22.3 C31.1,20.8 31.3,19.3 31.3,18.8 L31.3,18.8 L31.3,18.8 L31.3,18.8 L31.3,18.8 L31.3,18.8 C31.3,18.5 31.3,16.2 32.7,13.3 C31.6,13.6 30.5,14.2 29.4,15.1 Z"></path>
                            <path d="M52.5,3 L52.5,3 C52.4,2.3 52.2,1.6 51.6,1.1 C50.4,-0.1 48.6,-0.1 47.4,1.1 C46.8,1.7 46.5,2.5 46.5,3.2 C46.5,3.6 46.5,4 46.4,4.3 C46.8,4.4 47.2,4.7 47.6,5 C48.8,6.2 48.8,8 47.6,9.2 C47,9.8 46.2,10.1 45.5,10.1 C44.2,10.1 43,10.3 42.1,10.7 C42,10.8 41.8,10.8 41.7,10.9 C38.3,12.5 37.4,15.9 37.2,17.7 C37.6,17.6 37.9,17.6 38.1,17.6 L38.1,17.6 L38.1,17.6 L38.1,17.6 L38.1,17.6 L38.1,17.6 C38.4,17.6 42.5,17.6 46.8,14.3 C47.4,13.9 47.9,13.4 48.4,12.9 L48.5,12.8 C53.6,7.7 52.5,3 52.5,3 Z"></path>
                        </g>
                    </g>
                </g>
            </g>
        </g>
    </g>
</svg>