<?xml version="1.0" encoding="utf-8"?>
<!-- Generator: Adobe Illustrator 16.0.0, SVG Export Plug-In . SVG Version: 6.00 Build 0)  -->
<!DOCTYPE svg PUBLIC "-//W3C//DTD SVG 1.1//EN" "http://www.w3.org/Graphics/SVG/1.1/DTD/svg11.dtd">
<svg fill="currentColor" version="1.1" id="Layer_1" xmlns="http://www.w3.org/2000/svg" xmlns:xlink="http://www.w3.org/1999/xlink" x="0px" y="0px"
	 width="1024px" height="1024px" viewBox="0 0 1024 1024" enable-background="new 0 0 1024 1024" xml:space="preserve">
<rect fill="none" width="1024" height="1024"/>
<g>
	<g>
		<g>
			<path d="M235.786,943.345l137.718-155.187c25.441-40.224,2.124-72.928-51.733-72.688l-51.658,0.215l-0.977-607.515
				c-0.169-36.252-35.029-65.468-77.907-65.307c-42.862,0.185-77.495,29.725-77.311,65.961l1.007,607.538l-51.688,0.231
				c-53.842,0.223-76.853,33.128-51.093,73.12l130.558,153.995C168.43,983.746,210.346,983.561,235.786,943.345z"/>
		</g>
	</g>
	<g>
		<g>
			<path d="M954,781c0,0-312,0-484,0c-87,0-87,149,0,149c172,0,319,0,484,0C1048,930,1048,781,954,781C954,781,1048,781,954,781z"/>
		</g>
	</g>
	<g>
		<line x1="805" y1="615" x2="469" y2="615"/>
		<g>
			<path d="M805,536c0,0-226,0-336,0c-86,0-86,150,0,150c110,0,227,0,336,0C899,686,899,536,805,536C805,536,899,536,805,536z"/>
		</g>
	</g>
	<g>
		<line x1="695" y1="410" x2="469" y2="410"/>
		<g>
			<path d="M695,331c0,0-149,0-226,0c-86,0-86,150,0,150c77,0,148,0,226,0C789,481,789,331,695,331C695,331,789,331,695,331z"/>
		</g>
	</g>
	<g>
		<line x1="607" y1="166" x2="474" y2="166"/>
		<g>
			<path d="M607,95c0,0-94,0-133,0c-93,0-93,150,0,150c39,0,94,0,133,0C701,245,701,95,607,95C607,95,701,95,607,95z"/>
		</g>
	</g>
</g>
</svg>
