<?xml version="1.0" encoding="UTF-8"?>
<svg xmlns="http://www.w3.org/2000/svg" viewBox="0 0 16 16">
    <path fill="currentColor" style="line-height:normal;text-indent:0;text-align:start;text-decoration-line:none;text-decoration-style:solid;text-decoration-color:#000;text-transform:none;isolation:auto;mix-blend-mode:normal" d="M 8 2 C 4.691 2 2 4.691 2 8 C 2 9.089 2.2949375 10.130922 2.8359375 11.044922 L 3.5820312 10.296875 C 3.2150313 9.592875 3 8.816 3 8 C 3 5.243 5.243 3 8 3 C 8.816 3 9.592875 3.2150313 10.296875 3.5820312 L 11.044922 2.8359375 C 10.131922 2.2959375 9.089 2 8 2 z M 13.146484 2.1464844 L 2.1464844 13.146484 L 2.8535156 13.853516 L 4.1289062 12.578125 C 5.1746731 13.463075 6.5255583 14 8 14 C 11.308134 14 14 11.308134 14 8 C 14 6.5260901 13.462693 5.1746285 12.578125 4.1289062 L 13.853516 2.8535156 L 13.146484 2.1464844 z M 11.855469 4.8515625 C 12.560601 5.7133414 13 6.7976497 13 8 C 13 10.767866 10.767866 13 8 13 C 6.7975889 13 5.7133912 12.560768 4.8515625 11.855469 L 11.855469 4.8515625 z" font-weight="400" font-family="sans-serif" white-space="normal" overflow="visible"/>
</svg>